<?xml version="1.0" encoding="UTF-8"?>
<!DOCTYPE svg PUBLIC "-//W3C//DTD SVG 1.0//EN" "http://www.w3.org/TR/2001/REC-SVG-20010904/DTD/svg10.dtd">
<!-- Creator: CorelDRAW X7 -->
<svg xmlns="http://www.w3.org/2000/svg" xml:space="preserve" width="113.068mm" height="113.068mm" version="1.0" style="shape-rendering:geometricPrecision; text-rendering:geometricPrecision; image-rendering:optimizeQuality; fill-rule:evenodd; clip-rule:evenodd"
viewBox="0 0 1859 1859"
 xmlns:xlink="http://www.w3.org/1999/xlink">
 <defs>
  <style type="text/css">
   <![CDATA[
    .fil2 {fill:#03A6C7}
    .fil4 {fill:#05AF97}
    .fil3 {fill:#46CBB9}
    .fil1 {fill:#95E3F1}
    .fil0 {fill:#D3FCFC}
    .fil6 {fill:#EBBB35}
    .fil7 {fill:#EBC9B0}
    .fil8 {fill:#ED6D38}
    .fil5 {fill:#F8D75F}
    .fil9 {fill:#C3313B;fill-rule:nonzero}
    .fil10 {fill:#D1545C;fill-rule:nonzero}
   ]]>
  </style>
 </defs>
 <g id="Layer_x0020_1">
  <metadata id="CorelCorpID_0Corel-Layer"/>
  <g id="_2188027937936">
   <circle class="fil0" cx="930" cy="930" r="930"/>
   <g>
    <rect class="fil1" x="438" y="1053" width="211" height="362"/>
    <polygon class="fil2" points="438,1053 555,1053 555,1415 438,1415 "/>
    <rect class="fil3" x="696" y="962" width="211" height="453"/>
    <polygon class="fil4" points="696,962 806,962 806,1415 696,1415 "/>
    <rect class="fil5" x="953" y="872" width="211" height="544"/>
    <polygon class="fil6" points="953,872 1066,872 1066,1415 953,1415 "/>
    <rect class="fil7" x="1211" y="781" width="211" height="634"/>
    <polygon class="fil8" points="1211,781 1327,781 1327,1415 1211,1415 "/>
    <path class="fil9" d="M1195 695c-1,18 -16,31 -33,30 -18,-2 -31,-17 -30,-34l8 -101c-67,51 -250,165 -614,248 -19,5 -39,-8 -43,-27 -5,-20 8,-39 27,-43 352,-81 522,-187 583,-233l-107 -28c-17,-5 -27,-22 -22,-39 4,-17 22,-27 39,-23l181 49 0 0c15,4 25,18 24,33l-13 168z"/>
    <path class="fil10" d="M484 815c-1,-1 -1,-3 -1,-4 -5,-20 8,-39 27,-43 352,-81 522,-187 583,-233l-107 -28c-17,-5 -27,-22 -22,-39 4,-17 22,-27 39,-23l181 49 0 0c5,2 10,4 13,7 -184,159 -468,252 -713,314z"/>
   </g>
  </g>
 </g>
</svg>
