<?xml version="1.0" encoding="UTF-8"?>
<!DOCTYPE svg PUBLIC "-//W3C//DTD SVG 1.0//EN" "http://www.w3.org/TR/2001/REC-SVG-20010904/DTD/svg10.dtd">
<!-- Creator: CorelDRAW X7 -->
<svg xmlns="http://www.w3.org/2000/svg" xml:space="preserve" width="84.7868mm" height="79.5076mm" version="1.0" style="shape-rendering:geometricPrecision; text-rendering:geometricPrecision; image-rendering:optimizeQuality; fill-rule:evenodd; clip-rule:evenodd"
viewBox="0 0 1173 1100"
 xmlns:xlink="http://www.w3.org/1999/xlink">
 <defs>
  <style type="text/css">
   <![CDATA[
    .fil0 {fill:#C3313B;fill-rule:nonzero}
   ]]>
  </style>
 </defs>
 <g id="Layer_x0020_1">
  <metadata id="CorelCorpID_0Corel-Layer"/>
  <path class="fil0" d="M1048 42c-23,0 -43,9 -58,24 -15,15 -25,36 -25,59 0,23 10,44 25,59l0 0c15,15 36,24 58,24 23,0 44,-9 59,-24 15,-15 25,-36 25,-59 0,-23 -10,-43 -25,-59l0 0c-15,-15 -36,-24 -59,-24zm-238 838l0 199 0 21 -21 0 -406 0 -20 0 0 -21 0 -199 0 -8 0 -7 4 -5 87 -126 -88 -164 -6 -11 8 -10 194 -270 -95 0 -20 0 0 -21 0 -59c-59,22 -113,56 -156,99 -61,61 -104,140 -118,229l93 0 20 0 0 20 0 238 0 21 -20 0 -238 0 -21 0 0 -21 0 -238 0 -20 21 0 103 0c15,-100 62,-189 131,-258 51,-51 114,-90 185,-113l0 -10 -200 0c-5,26 -17,49 -35,67 -22,23 -53,37 -88,37 -34,0 -65,-14 -88,-37l0 0c-22,-22 -36,-53 -36,-88 0,-34 14,-65 36,-87l0 -1c23,-22 54,-36 88,-36 34,0 65,14 88,36l0 0c18,18 30,42 35,68l200 0 0 -84 0 -21 20 0 238 0 21 0 0 21 0 84 200 0c4,-26 17,-50 35,-67l0 -1c22,-22 53,-36 87,-36 35,0 66,14 88,36l0 0c23,23 37,54 37,88 0,35 -14,66 -37,88 -22,23 -53,37 -88,37 -34,0 -65,-14 -87,-37l0 0c-18,-18 -31,-41 -35,-67l-200 0 0 10c70,23 134,62 185,113 69,69 117,160 131,261l103 0 20 0 0 21 0 238 0 20 -20 0 -238 0 -21 0 0 -20 0 -238 0 -21 21 0 93 0c-14,-89 -56,-170 -118,-232 -44,-43 -97,-77 -156,-99l0 59 0 21 -21 0 -94 0 194 270 8 10 -6 11 -88 165 87 134 4 5 0 6zm-627 -814c-15,-15 -36,-24 -59,-24 -23,0 -44,9 -59,24 -15,15 -24,36 -24,59 0,23 9,44 24,59l0 0c15,15 36,24 59,24 23,0 44,-9 59,-24 15,-15 24,-36 24,-59 0,-23 -9,-43 -24,-59l0 0zm941 505l-197 0 0 197 197 0 0 -197zm-879 -3l-196 0 0 197 196 0 0 -197zm440 -527l-197 0 0 197 197 0 0 -197zm-78 302l0 240 -41 0 0 -240 -158 219 82 153 193 0 82 -153 -158 -219zm162 716l0 -173 -85 -130 -196 0 -84 122 0 2 0 179 365 0z"/>
 </g>
</svg>
