<?xml version="1.0" encoding="UTF-8"?>
<!DOCTYPE svg PUBLIC "-//W3C//DTD SVG 1.0//EN" "http://www.w3.org/TR/2001/REC-SVG-20010904/DTD/svg10.dtd">
<!-- Creator: CorelDRAW X7 -->
<svg xmlns="http://www.w3.org/2000/svg" xml:space="preserve" width="84.0725mm" height="84.0725mm" version="1.0" style="shape-rendering:geometricPrecision; text-rendering:geometricPrecision; image-rendering:optimizeQuality; fill-rule:evenodd; clip-rule:evenodd"
viewBox="0 0 2168 2168"
 xmlns:xlink="http://www.w3.org/1999/xlink">
 <defs>
  <style type="text/css">
   <![CDATA[
    .fil0 {fill:#C3313B;fill-rule:nonzero}
   ]]>
  </style>
 </defs>
 <g id="Layer_x0020_1">
  <metadata id="CorelCorpID_0Corel-Layer"/>
  <path class="fil0" d="M2168 1918l0 204 0 46 -46 0 -204 0 0 -92 158 0 0 -158 92 0zm-1107 -726l-476 -288 -275 166 774 468 774 -468 -274 -166 -476 288 -24 14 -23 -14zm-565 -341l-298 -180 -65 -40 65 -39 863 -521 23 -15 24 15 863 521 65 39 -65 40 -298 180 298 180 65 39 -65 39 -322 195 322 194 65 39 -65 40 -863 521 -24 14 -23 -14 -863 -521 -65 -40 65 -39 321 -194 -321 -195 -65 -39 65 -39 298 -180zm-186 -220l193 116 763 -473 -182 -110 -774 467zm281 170l181 109 764 -474 -182 -109 -763 474zm269 162l224 136 486 -294 -5 -20 19 12 274 -166 -234 -141 -764 473zm201 668l-453 -274 -298 180 774 468 774 -468 -298 -180 -452 274 -24 14 -23 -14zm-1015 -1631l204 0 0 92 -158 0 0 158 -92 0 0 -204 0 -46 46 0zm204 2168l-204 0 -46 0 0 -46 0 -204 92 0 0 158 158 0 0 92zm1681 -2168l191 0 46 0 0 46 0 204 -92 0 0 -158 -145 0 0 -92z"/>
 </g>
</svg>
