<?xml version="1.0" encoding="UTF-8"?>
<!DOCTYPE svg PUBLIC "-//W3C//DTD SVG 1.0//EN" "http://www.w3.org/TR/2001/REC-SVG-20010904/DTD/svg10.dtd">
<!-- Creator: CorelDRAW X7 -->
<svg xmlns="http://www.w3.org/2000/svg" xml:space="preserve" width="83.6425mm" height="84.7868mm" version="1.0" style="shape-rendering:geometricPrecision; text-rendering:geometricPrecision; image-rendering:optimizeQuality; fill-rule:evenodd; clip-rule:evenodd"
viewBox="0 0 191484 194104"
 xmlns:xlink="http://www.w3.org/1999/xlink">
 <defs>
  <style type="text/css">
   <![CDATA[
    .fil0 {fill:#C3313B}
   ]]>
  </style>
 </defs>
 <g id="Layer_x0020_1">
  <metadata id="CorelCorpID_0Corel-Layer"/>
  <path class="fil0" d="M30969 22203c3659,0 6627,2968 6627,6628 0,3660 -2968,6628 -6627,6628 -3661,0 -6629,-2968 -6629,-6628 0,-3660 2968,-6628 6629,-6628zm-23257 24897l176059 0 0 -31203c0,-2246 -922,-4292 -2407,-5777l0 -16c-1474,-1474 -3521,-2392 -5777,-2392l-159690 0c-2246,0 -4292,923 -5777,2408 -1485,1485 -2408,3531 -2408,5777l0 31203zm176059 7712l-176059 0 0 123394c0,2257 918,4304 2392,5778l16 0c1485,1485 3531,2408 5777,2408l159690 0c2256,0 4303,-918 5777,-2392l15 -16c1475,-1474 2392,-3521 2392,-5778l0 -123394zm-70645 15833c856,-1946 3130,-2830 5076,-1973 1945,856 2829,3130 1973,5076l-38263 86769c-855,1945 -3129,2829 -5075,1972 -1945,-855 -2829,-3129 -1974,-5075l38263 -86769zm-40964 70117c1655,1331 1917,3753 586,5408 -1331,1655 -3752,1917 -5407,586l-35177 -28169c-1656,-1331 -1918,-3753 -588,-5407 193,-239 407,-448 639,-629l35126 -28128c1655,-1331 4076,-1068 5407,586 1331,1656 1069,4077 -586,5408l-31436 25173 31436 25172zm50716 0c-1655,1331 -1918,3753 -587,5408 1331,1655 3753,1917 5407,586l35178 -28169c1656,-1331 1918,-3753 587,-5407 -193,-239 -406,-448 -639,-629l-35126 -28128c-1654,-1331 -4076,-1068 -5407,586 -1331,1656 -1068,4077 587,5408l31435 25173 -31435 25172zm-69465 -118559c3661,0 6628,2968 6628,6628 0,3660 -2967,6628 -6628,6628 -3660,0 -6628,-2968 -6628,-6628 0,-3660 2968,-6628 6628,-6628zm22446 0c3659,0 6628,2968 6628,6628 0,3660 -2969,6628 -6628,6628 -3661,0 -6629,-2968 -6629,-6628 0,-3660 2968,-6628 6629,-6628zm46540 -980l44745 0 0 15216 -44745 0 0 -15216zm-106502 -21223l159690 0c4362,0 8335,1790 11222,4675l8 -8c2879,2879 4667,6854 4667,11230l0 162309c0,4359 -1786,8330 -4667,11216l-8 7 -7 8c-2887,2881 -6858,4667 -11215,4667l-159690 0c-4376,0 -8351,-1789 -11230,-4667l8 -8c-2885,-2887 -4675,-6861 -4675,-11223l0 -162309c0,-4376 1788,-8351 4667,-11230 2879,-2879 6854,-4667 11230,-4667z"/>
 </g>
</svg>
