<?xml version="1.0" encoding="UTF-8"?>
<!DOCTYPE svg PUBLIC "-//W3C//DTD SVG 1.0//EN" "http://www.w3.org/TR/2001/REC-SVG-20010904/DTD/svg10.dtd">
<!-- Creator: CorelDRAW X7 -->
<svg xmlns="http://www.w3.org/2000/svg" xml:space="preserve" width="111.969mm" height="24.9512mm" version="1.0" style="shape-rendering:geometricPrecision; text-rendering:geometricPrecision; image-rendering:optimizeQuality; fill-rule:evenodd; clip-rule:evenodd"
viewBox="0 0 9605 2140"
 xmlns:xlink="http://www.w3.org/1999/xlink">
 <defs>
  <style type="text/css">
   <![CDATA[
    .str0 {stroke:#222222;stroke-width:6.53656}
    .fil3 {fill:none;fill-rule:nonzero}
    .fil1 {fill:#FEFEFE}
    .fil0 {fill:#C2323C}
    .fil2 {fill:#2B2B2A;fill-rule:nonzero}
   ]]>
  </style>
 </defs>
 <g id="Layer_x0020_1">
  <metadata id="CorelCorpID_0Corel-Layer"/>
  <g id="_2264208245856">
   <circle class="fil0" cx="1070" cy="1070" r="1070"/>
   <g>
    <polygon class="fil1" points="1295,870 426,870 859,350 969,482 956,498 787,701 1126,701 1153,701 "/>
    <polygon class="fil1" points="1122,350 1713,1054 1492,1054 901,350 "/>
    <polygon class="fil1" points="1094,902 1263,902 1263,1790 1094,1588 "/>
    <polygon class="fil1" points="1494,1084 1295,1321 1295,1584 1715,1084 "/>
   </g>
   <g>
    <path class="fil2" d="M3076 1513l202 0 -283 -784 -222 0 -283 784 200 0 47 -139 292 0 47 139zm-96 -286l-193 0 96 -287 97 287z"/>
    <path id="1" class="fil3 str0" d="M3076 1513l202 0 -283 -784 -222 0 -283 784 200 0 47 -139 292 0 47 139zm-96 -286l-193 0 96 -287 97 287z"/>
    <path class="fil2" d="M3609 1080l0 -197 103 0c76,0 109,38 109,98 0,61 -33,99 -109,99l-103 0zm406 -99c0,-144 -96,-252 -288,-252l-309 0 0 784 191 0 0 -282 118 0c200,0 288,-120 288,-250z"/>
    <path id="1" class="fil2" d="M4305 1224c0,-108 53,-139 143,-139l52 0 0 -202c-83,0 -151,45 -195,111l0 -104 -191 0 0 623 191 0 0 -289z"/>
    <path id="2" class="fil2" d="M5201 1201c0,-197 -140,-320 -323,-320 -182,0 -324,123 -324,320 0,198 138,321 322,321 183,0 325,-123 325,-321zm-453 0c0,-106 61,-155 130,-155 67,0 129,49 129,155 0,105 -63,155 -131,155 -70,0 -128,-50 -128,-155z"/>
    <path id="3" class="fil2" d="M5265 1200c0,197 122,322 275,322 91,0 157,-42 192,-99l0 90 191 0 0 -826 -191 0 0 289c-38,-57 -110,-95 -192,-95 -153,0 -275,123 -275,319zm467 1c0,100 -64,154 -137,154 -71,0 -136,-55 -136,-155 0,-99 65,-153 136,-153 73,0 137,55 137,154z"/>
    <path id="4" class="fil2" d="M6676 890l-191 0 0 338c0,85 -47,132 -120,132 -72,0 -120,-47 -120,-132l0 -338 -190 0 0 364c0,166 97,265 241,265 84,0 151,-37 189,-91l0 85 191 0 0 -623z"/>
    <path id="5" class="fil2" d="M6775 1201c0,198 130,321 313,321 156,0 267,-91 299,-235l-203 0c-17,46 -47,72 -99,72 -69,0 -115,-54 -115,-158 0,-103 46,-157 115,-157 52,0 83,28 99,71l203 0c-32,-148 -143,-234 -299,-234 -183,0 -313,124 -313,320z"/>
    <path id="6" class="fil2" d="M7519 1296c0,162 90,217 220,217l97 0 0 -162 -68 0c-43,0 -58,-16 -58,-53l0 -250 125 0 0 -158 -125 0 0 -152 -191 0 0 152 -76 0 0 158 76 0 0 248z"/>
    <path id="7" class="fil2" d="M7942 1513l191 0 0 -623 -191 0 0 623zm96 -688c67,0 113,-46 113,-103 0,-58 -46,-103 -113,-103 -68,0 -114,45 -114,103 0,57 46,103 114,103z"/>
    <path id="8" class="fil2" d="M8881 1201c0,-197 -141,-320 -324,-320 -182,0 -324,123 -324,320 0,198 139,321 322,321 183,0 326,-123 326,-321zm-454 0c0,-106 61,-155 130,-155 67,0 129,49 129,155 0,105 -63,155 -131,155 -70,0 -128,-50 -128,-155z"/>
    <path id="9" class="fil2" d="M9412 1513l190 0 0 -364c0,-168 -96,-266 -240,-266 -84,0 -151,37 -189,90l0 -83 -191 0 0 623 191 0 0 -338c0,-85 47,-132 119,-132 73,0 120,47 120,132l0 338z"/>
    <path id="10" class="fil3 str0" d="M3609 1080l0 -197 103 0c76,0 109,38 109,98 0,61 -33,99 -109,99l-103 0zm406 -99c0,-144 -96,-252 -288,-252l-309 0 0 784 191 0 0 -282 118 0c200,0 288,-120 288,-250z"/>
    <path id="11" class="fil3 str0" d="M4305 1224c0,-108 53,-139 143,-139l52 0 0 -202c-83,0 -151,45 -195,111l0 -104 -191 0 0 623 191 0 0 -289z"/>
    <path id="12" class="fil3 str0" d="M5201 1201c0,-197 -140,-320 -323,-320 -182,0 -324,123 -324,320 0,198 138,321 322,321 183,0 325,-123 325,-321zm-453 0c0,-106 61,-155 130,-155 67,0 129,49 129,155 0,105 -63,155 -131,155 -70,0 -128,-50 -128,-155z"/>
    <path id="13" class="fil3 str0" d="M5265 1200c0,197 122,322 275,322 91,0 157,-42 192,-99l0 90 191 0 0 -826 -191 0 0 289c-38,-57 -110,-95 -192,-95 -153,0 -275,123 -275,319zm467 1c0,100 -64,154 -137,154 -71,0 -136,-55 -136,-155 0,-99 65,-153 136,-153 73,0 137,55 137,154z"/>
    <path id="14" class="fil3 str0" d="M6676 890l-191 0 0 338c0,85 -47,132 -120,132 -72,0 -120,-47 -120,-132l0 -338 -190 0 0 364c0,166 97,265 241,265 84,0 151,-37 189,-91l0 85 191 0 0 -623z"/>
    <path id="15" class="fil3 str0" d="M6775 1201c0,198 130,321 313,321 156,0 267,-91 299,-235l-203 0c-17,46 -47,72 -99,72 -69,0 -115,-54 -115,-158 0,-103 46,-157 115,-157 52,0 83,28 99,71l203 0c-32,-148 -143,-234 -299,-234 -183,0 -313,124 -313,320z"/>
    <path id="16" class="fil3 str0" d="M7519 1296c0,162 90,217 220,217l97 0 0 -162 -68 0c-43,0 -58,-16 -58,-53l0 -250 125 0 0 -158 -125 0 0 -152 -191 0 0 152 -76 0 0 158 76 0 0 248z"/>
    <path id="17" class="fil3 str0" d="M7942 1513l191 0 0 -623 -191 0 0 623zm96 -688c67,0 113,-46 113,-103 0,-58 -46,-103 -113,-103 -68,0 -114,45 -114,103 0,57 46,103 114,103z"/>
    <path id="18" class="fil3 str0" d="M8881 1201c0,-197 -141,-320 -324,-320 -182,0 -324,123 -324,320 0,198 139,321 322,321 183,0 326,-123 326,-321zm-454 0c0,-106 61,-155 130,-155 67,0 129,49 129,155 0,105 -63,155 -131,155 -70,0 -128,-50 -128,-155z"/>
    <path id="19" class="fil3 str0" d="M9412 1513l190 0 0 -364c0,-168 -96,-266 -240,-266 -84,0 -151,37 -189,90l0 -83 -191 0 0 623 191 0 0 -338c0,-85 47,-132 119,-132 73,0 120,47 120,132l0 338z"/>
   </g>
  </g>
 </g>
</svg>
